<svg xmlns="http://www.w3.org/2000/svg" viewBox="0 0 96 112" role="img" aria-labelledby="title">
  <title id="title">CMDA DEV</title>
  <path d="M48 106C34 92 12 80 10 50 8 24 34 16 48 37c14-21 40-13 38 13-2 30-24 42-38 56Z" fill="#fffdf9" stroke="#210a55" stroke-width="5"/>
  <path d="M48 98C37 86 20 77 18 52c-1-17 15-24 30 0 15-24 31-17 30 0-2 25-19 34-30 46Z" fill="#fff4df" stroke="#f0a000" stroke-width="3"/>
  <path d="M48 7v32M33 20h30" stroke="#210a55" stroke-width="5" stroke-linecap="round"/>
  <circle cx="48" cy="57" r="7" fill="#f0a000"/>
  <circle cx="34" cy="67" r="6" fill="#210a55"/>
  <circle cx="62" cy="67" r="6" fill="#210a55"/>
  <path d="M48 66v21M34 75l14 16 14-16" stroke="#f0a000" stroke-width="5" stroke-linecap="round" stroke-linejoin="round"/>
</svg>
