<svg xmlns="http://www.w3.org/2000/svg" viewBox="0 0 640 420" preserveAspectRatio="xMidYMid slice">
  <defs>
    <linearGradient id="coastSky" x1="0" y1="0" x2="0" y2="1">
      <stop offset="0" stop-color="#dce9f5"/>
      <stop offset="1" stop-color="#fff3de"/>
    </linearGradient>
    <linearGradient id="sea" x1="0" y1="0" x2="1" y2="1">
      <stop offset="0" stop-color="#234064"/>
      <stop offset="1" stop-color="#7ab0c4"/>
    </linearGradient>
  </defs>
  <rect width="640" height="420" fill="url(#coastSky)"/>
  <path d="M306 148c106 24 203 12 334-24v296H284c54-65 72-147 22-272Z" fill="url(#sea)"/>
  <path d="M0 156c118 30 197 75 239 137 31 47 74 72 145 83v44H0Z" fill="#77652d"/>
  <path d="M0 215c107 22 188 72 231 136 25 38 67 56 128 69H0Z" fill="#385a36"/>
  <path d="M79 420c80-78 158-129 232-154" stroke="#f4d28a" stroke-width="18" stroke-linecap="round"/>
  <path d="M385 220c72 10 151 0 230-26M356 273c80 15 164 8 252-19" stroke="#fff8ed" stroke-width="10" stroke-linecap="round" opacity=".75"/>
</svg>
